HIERARCHY
ROOT mixamorig:Hips
{
	OFFSET 0.000000 201.639420 0.000000
	CHANNELS 6 Xposition Yposition Zposition Xrotation Yrotation Zrotation
	JOINT mixamorig:Spine
	{
		OFFSET 0.006200 19.524994 -2.481800
		CHANNELS 3 Xrotation Yrotation Zrotation
		JOINT mixamorig:Spine1
		{
			OFFSET -0.000900 22.835007 -2.825400
			CHANNELS 3 Xrotation Yrotation Zrotation
			JOINT mixamorig:Spine2
			{
				OFFSET -0.020600 26.552490 -3.193300
				CHANNELS 3 Xrotation Yrotation Zrotation
				JOINT mixamorig:Neck
				{
					OFFSET -0.060000 30.701813 1.352200
					CHANNELS 3 Xrotation Yrotation Zrotation
					JOINT mixamorig:Head
					{
						OFFSET -0.087200 22.547607 3.670900
						CHANNELS 3 Xrotation Yrotation Zrotation
						JOINT mixamorig:HeadTop_End
						{
							OFFSET -0.830600 40.355194 7.893500
							CHANNELS 3 Xrotation Yrotation Zrotation
							End Site
							{
								OFFSET 0.000000 30.592346 0.000000
							}
						}
						JOINT mixamorig:RightEye
						{
							OFFSET -6.302100 18.118591 16.197100
							CHANNELS 3 Xrotation Yrotation Zrotation
							End Site
							{
								OFFSET 0.000000 30.592346 0.000000
							}
						}
						JOINT mixamorig:LeftEye
						{
							OFFSET 6.741500 18.382690 16.401899
							CHANNELS 3 Xrotation Yrotation Zrotation
							End Site
							{
								OFFSET 0.000000 30.592346 0.000000
							}
						}
					}
				}
				JOINT mixamorig:LeftShoulder
				{
					OFFSET 11.924900 18.230499 1.425400
					CHANNELS 3 Xrotation Yrotation Zrotation
					JOINT mixamorig:LeftArm
					{
						OFFSET 25.435989 -0.697632 -5.229300
						CHANNELS 3 Xrotation Yrotation Zrotation
						JOINT mixamorig:LeftForeArm
						{
							OFFSET 54.684776 0.000000 0.000000
							CHANNELS 3 Xrotation Yrotation Zrotation
							JOINT mixamorig:LeftHand
							{
								OFFSET 55.098175 0.000000 0.000000
								CHANNELS 3 Xrotation Yrotation Zrotation
								JOINT mixamorig:LeftHandMiddle1
								{
									OFFSET 23.369751 0.000000 0.000000
									CHANNELS 3 Xrotation Yrotation Zrotation
									JOINT mixamorig:LeftHandMiddle2
									{
										OFFSET 6.378677 0.000000 0.000000
										CHANNELS 3 Xrotation Yrotation Zrotation
										JOINT mixamorig:LeftHandMiddle3
										{
											OFFSET 6.148331 0.000000 0.000000
											CHANNELS 3 Xrotation Yrotation Zrotation
											JOINT mixamorig:LeftHandMiddle4
											{
												OFFSET 6.582504 0.000000 0.000000
												CHANNELS 3 Xrotation Yrotation Zrotation
												End Site
												{
													OFFSET -1.168900 6.395691 1.028606
												}
											}
										}
									}
								}
								JOINT mixamorig:LeftHandThumb1
								{
									OFFSET 7.235672 -3.848206 5.434273
									CHANNELS 3 Xrotation Yrotation Zrotation
									JOINT mixamorig:LeftHandThumb2
									{
										OFFSET 6.568451 -3.792297 3.792300
										CHANNELS 3 Xrotation Yrotation Zrotation
										JOINT mixamorig:LeftHandThumb3
										{
											OFFSET 6.063080 -3.500519 3.500518
											CHANNELS 3 Xrotation Yrotation Zrotation
											JOINT mixamorig:LeftHandThumb4
											{
												OFFSET 4.793182 -2.767334 2.767349
												CHANNELS 3 Xrotation Yrotation Zrotation
												End Site
												{
													OFFSET 0.101639 6.054260 1.275483
												}
											}
										}
									}
								}
								JOINT mixamorig:LeftHandIndex1
								{
									OFFSET 23.101074 -0.309540 4.992809
									CHANNELS 3 Xrotation Yrotation Zrotation
									JOINT mixamorig:LeftHandIndex2
									{
										OFFSET 6.226883 0.000000 0.000000
										CHANNELS 3 Xrotation Yrotation Zrotation
										JOINT mixamorig:LeftHandIndex3
										{
											OFFSET 6.094330 0.000000 0.000000
											CHANNELS 3 Xrotation Yrotation Zrotation
											JOINT mixamorig:LeftHandIndex4
											{
												OFFSET 5.482605 0.000000 0.000000
												CHANNELS 3 Xrotation Yrotation Zrotation
												End Site
												{
													OFFSET -1.427902 5.233032 0.797164
												}
											}
										}
									}
								}
								JOINT mixamorig:LeftHandRing1
								{
									OFFSET 22.299240 0.021149 -3.964172
									CHANNELS 3 Xrotation Yrotation Zrotation
									JOINT mixamorig:LeftHandRing2
									{
										OFFSET 6.321869 0.000000 0.000000
										CHANNELS 3 Xrotation Yrotation Zrotation
										JOINT mixamorig:LeftHandRing3
										{
											OFFSET 5.899796 0.000000 0.000000
											CHANNELS 3 Xrotation Yrotation Zrotation
											JOINT mixamorig:LeftHandRing4
											{
												OFFSET 6.517899 0.000000 0.000000
												CHANNELS 3 Xrotation Yrotation Zrotation
												End Site
												{
													OFFSET -1.637299 6.232208 0.980890
												}
											}
										}
									}
								}
								JOINT mixamorig:LeftHandPinky1
								{
									OFFSET 20.463791 -0.302338 -8.562233
									CHANNELS 3 Xrotation Yrotation Zrotation
									JOINT mixamorig:LeftHandPinky2
									{
										OFFSET 6.908646 0.000000 0.000000
										CHANNELS 3 Xrotation Yrotation Zrotation
										JOINT mixamorig:LeftHandPinky3
										{
											OFFSET 4.622849 0.000000 0.000000
											CHANNELS 3 Xrotation Yrotation Zrotation
											JOINT mixamorig:LeftHandPinky4
											{
												OFFSET 5.216080 0.000000 0.000000
												CHANNELS 3 Xrotation Yrotation Zrotation
												End Site
												{
													OFFSET -0.606308 5.116241 0.814926
												}
											}
										}
									}
								}
							}
						}
					}
				}
				JOINT mixamorig:RightShoulder
				{
					OFFSET -12.001300 18.284088 1.348900
					CHANNELS 3 Xrotation Yrotation Zrotation
					JOINT mixamorig:RightArm
					{
						OFFSET -25.308500 -0.751312 -5.164599
						CHANNELS 3 Xrotation Yrotation Zrotation
						JOINT mixamorig:RightForeArm
						{
							OFFSET -54.684429 0.000000 0.000000
							CHANNELS 3 Xrotation Yrotation Zrotation
							JOINT mixamorig:RightHand
							{
								OFFSET -55.150291 0.000000 0.000000
								CHANNELS 3 Xrotation Yrotation Zrotation
								JOINT mixamorig:RightHandMiddle1
								{
									OFFSET -23.317566 0.000000 0.000000
									CHANNELS 3 Xrotation Yrotation Zrotation
									JOINT mixamorig:RightHandMiddle2
									{
										OFFSET -6.378403 0.000000 0.000000
										CHANNELS 3 Xrotation Yrotation Zrotation
										JOINT mixamorig:RightHandMiddle3
										{
											OFFSET -6.148193 0.000000 0.000000
											CHANNELS 3 Xrotation Yrotation Zrotation
											JOINT mixamorig:RightHandMiddle4
											{
												OFFSET -6.583389 0.000000 0.000000
												CHANNELS 3 Xrotation Yrotation Zrotation
												End Site
												{
													OFFSET 1.171692 6.395905 1.029786
												}
											}
										}
									}
								}
								JOINT mixamorig:RightHandThumb1
								{
									OFFSET -7.190521 -3.860474 5.435846
									CHANNELS 3 Xrotation Yrotation Zrotation
									JOINT mixamorig:RightHandThumb2
									{
										OFFSET -6.567429 -3.791718 3.791708
										CHANNELS 3 Xrotation Yrotation Zrotation
										JOINT mixamorig:RightHandThumb3
										{
											OFFSET -6.062469 -3.500153 3.500166
											CHANNELS 3 Xrotation Yrotation Zrotation
											JOINT mixamorig:RightHandThumb4
											{
												OFFSET -4.792618 -2.767029 2.767022
												CHANNELS 3 Xrotation Yrotation Zrotation
												End Site
												{
													OFFSET -0.100327 6.053253 1.276754
												}
											}
										}
									}
								}
								JOINT mixamorig:RightHandIndex1
								{
									OFFSET -23.048981 -0.310791 4.992554
									CHANNELS 3 Xrotation Yrotation Zrotation
									JOINT mixamorig:RightHandIndex2
									{
										OFFSET -6.227539 0.000000 0.000000
										CHANNELS 3 Xrotation Yrotation Zrotation
										JOINT mixamorig:RightHandIndex3
										{
											OFFSET -6.095047 0.000000 0.000000
											CHANNELS 3 Xrotation Yrotation Zrotation
											JOINT mixamorig:RightHandIndex4
											{
												OFFSET -5.484772 0.000000 0.000000
												CHANNELS 3 Xrotation Yrotation Zrotation
												End Site
												{
													OFFSET 1.420593 5.237305 0.797056
												}
											}
										}
									}
								}
								JOINT mixamorig:RightHandRing1
								{
									OFFSET -22.246323 0.020569 -3.963762
									CHANNELS 3 Xrotation Yrotation Zrotation
									JOINT mixamorig:RightHandRing2
									{
										OFFSET -6.322128 0.000000 0.000000
										CHANNELS 3 Xrotation Yrotation Zrotation
										JOINT mixamorig:RightHandRing3
										{
											OFFSET -5.900024 0.000000 0.000000
											CHANNELS 3 Xrotation Yrotation Zrotation
											JOINT mixamorig:RightHandRing4
											{
												OFFSET -6.518356 0.000000 0.000000
												CHANNELS 3 Xrotation Yrotation Zrotation
												End Site
												{
													OFFSET 1.636398 6.232697 0.982186
												}
											}
										}
									}
								}
								JOINT mixamorig:RightHandPinky1
								{
									OFFSET -20.411011 -0.303314 -8.561701
									CHANNELS 3 Xrotation Yrotation Zrotation
									JOINT mixamorig:RightHandPinky2
									{
										OFFSET -6.907349 0.000000 0.000000
										CHANNELS 3 Xrotation Yrotation Zrotation
										JOINT mixamorig:RightHandPinky3
										{
											OFFSET -4.623840 0.000000 0.000000
											CHANNELS 3 Xrotation Yrotation Zrotation
											JOINT mixamorig:RightHandPinky4
											{
												OFFSET -5.218353 0.000000 0.000000
												CHANNELS 3 Xrotation Yrotation Zrotation
												End Site
												{
													OFFSET 0.602097 5.118835 0.816273
												}
											}
										}
									}
								}
							}
						}
					}
				}
			}
		}
	}
	JOINT mixamorig:LeftUpLeg
	{
		OFFSET 18.168400 -13.561905 -0.039000
		CHANNELS 3 Xrotation Yrotation Zrotation
		JOINT mixamorig:LeftLeg
		{
			OFFSET 0.577358 -80.825211 -3.695000
			CHANNELS 3 Xrotation Yrotation Zrotation
			JOINT mixamorig:LeftFoot
			{
				OFFSET -0.577356 -83.370262 -6.520700
				CHANNELS 3 Xrotation Yrotation Zrotation
				JOINT mixamorig:LeftToeBase
				{
					OFFSET 0.750401 -20.798306 25.135401
					CHANNELS 3 Xrotation Yrotation Zrotation
					JOINT mixamorig:LeftToe_End
					{
						OFFSET -0.000500 0.001200 19.917799
						CHANNELS 3 Xrotation Yrotation Zrotation
						End Site
						{
							OFFSET 0.000000 19.917805 0.000000
						}
					}
				}
			}
		}
	}
	JOINT mixamorig:RightUpLeg
	{
		OFFSET -18.162500 -13.585098 -0.041000
		CHANNELS 3 Xrotation Yrotation Zrotation
		JOINT mixamorig:RightLeg
		{
			OFFSET -0.595024 -80.945297 -3.631900
			CHANNELS 3 Xrotation Yrotation Zrotation
			JOINT mixamorig:RightFoot
			{
				OFFSET 0.595024 -83.218193 -6.561200
				CHANNELS 3 Xrotation Yrotation Zrotation
				JOINT mixamorig:RightToeBase
				{
					OFFSET -0.753601 -20.807106 25.115000
					CHANNELS 3 Xrotation Yrotation Zrotation
					JOINT mixamorig:RightToe_End
					{
						OFFSET 0.000299 0.001700 19.918200
						CHANNELS 3 Xrotation Yrotation Zrotation
						End Site
						{
							OFFSET 0.000000 19.918203 0.000000
						}
					}
				}
			}
		}
	}
}
MOTION
Frames: 4
Frame Time: 0.033333
24.328667 122.991806 -75.601257 46.324525 -31.694499 29.633636 7.568737 0.393875 -0.278799 15.138370 -0.085260 -0.760635 15.138378 -0.085253 -0.760640 33.985823 1.031817 -8.419735 -6.787812 -1.550231 -7.964299 -0.000000 -0.000000 -0.000000 -0.000000 -0.000000 -0.000000 -0.000000 -0.000000 -0.000000 3.787579 -10.160278 16.715892 -89.068399 -23.268359 -57.498274 -179.860901 -83.741241 -171.835675 -47.726056 -23.065764 3.523914 -4.334866 -7.470274 -57.454062 -0.579983 -2.236973 -28.530873 -0.000003 -0.000006 -0.000002 -0.000000 0.000001 0.000003 7.472111 4.775373 7.625788 -1.836307 5.125460 -3.177596 0.000010 0.000018 0.000005 0.000001 -0.000002 0.000001 0.451275 -0.536129 -36.424234 0.216773 0.578365 -34.477685 0.000001 0.000010 0.000005 -0.000002 -0.000001 0.000001 -9.111238 6.163961 -48.686924 -1.617760 -3.633671 -48.215661 -0.000006 -0.000006 -0.000010 0.000003 -0.000000 0.000003 3.032508 7.427318 -76.029438 -4.249092 -4.376180 -76.197235 -0.000005 -0.000003 0.000007 -0.000006 -0.000005 0.000003 10.001668 24.546098 -27.702723 -44.404016 16.120414 32.013967 123.324953 74.298709 -145.320471 -16.827141 17.564904 -17.758003 -9.428543 2.933645 44.229190 -0.739180 2.152545 37.376578 0.000005 0.000001 0.000002 0.000001 0.000000 0.000002 -13.871552 2.314587 9.084939 -0.558451 -0.321278 0.302144 0.000003 0.000007 -0.000022 0.000004 0.000001 0.000000 -13.633874 -0.341962 44.390195 0.132941 -0.726112 18.014904 -0.000001 -0.000001 -0.000003 -0.000002 0.000001 0.000003 -16.677884 -3.727668 43.434081 -2.566423 4.907218 52.596842 -0.000002 0.000002 -0.000001 -0.000001 0.000001 0.000000 -10.937927 9.262416 48.446791 -2.266855 6.323300 39.592732 0.000000 -0.000002 -0.000002 -0.000003 0.000000 0.000001 -118.539012 -22.500539 3.776025 95.005882 -9.264409 -3.058316 -0.713553 40.589434 -24.824473 -1.087062 2.121687 1.426664 0.000000 -0.000000 0.000000 -123.237554 10.482984 -6.518084 100.135067 -8.539051 2.495146 -13.537240 14.359288 11.188270 -4.880222 -0.101133 0.249355 -0.000000 -0.000002 0.000000 
24.407646 122.735077 -75.884430 45.830866 -31.735965 29.976464 7.567856 0.407881 -0.170921 15.136970 0.004156 -0.548481 15.136995 0.004144 -0.548456 33.910356 1.127386 -8.136694 -7.066822 -1.238269 -7.921294 -0.000000 0.000000 0.000001 -0.000000 0.000000 0.000001 -0.000000 0.000000 0.000001 3.760882 -9.803297 16.874293 -89.529587 -23.219064 -57.014085 -181.616943 -82.530146 -173.170499 -45.877291 -23.282250 4.532255 -4.545329 -7.493621 -58.509149 -0.594096 -2.262777 -28.891007 -0.000003 -0.000004 -0.000006 -0.000001 -0.000000 -0.000002 7.362784 4.665225 4.004472 -1.836303 5.125481 -3.177589 0.000004 0.000018 0.000004 0.000001 -0.000002 0.000000 0.184709 -0.158552 -38.221100 0.223563 0.586936 -35.144124 0.000001 0.000009 0.000001 0.000003 0.000003 -0.000004 -9.066835 6.274450 -49.660171 -1.641863 -3.655042 -48.595071 -0.000004 -0.000007 -0.000011 0.000001 0.000001 0.000002 3.074205 7.441292 -76.713468 -4.270537 -4.387703 -76.477041 0.000000 -0.000003 0.000005 -0.000004 -0.000002 0.000001 10.103735 24.639776 -28.034669 -44.288757 16.335717 31.517358 122.228885 74.800318 -144.194350 -17.071334 17.484857 -17.900623 -9.376876 2.814692 44.447552 -0.741135 2.155098 37.428422 0.000008 0.000001 0.000003 0.000000 0.000000 0.000001 -13.704092 2.045512 8.401288 -0.558466 -0.321264 0.302137 -0.000001 0.000004 -0.000021 0.000002 0.000002 -0.000000 -13.666321 -0.244942 44.300645 0.132840 -0.725840 18.007302 -0.000004 -0.000004 0.000001 0.000002 0.000001 0.000005 -16.623337 -3.810953 43.480059 -2.569857 4.909829 52.636849 -0.000002 0.000002 -0.000001 0.000001 0.000000 -0.000001 -10.885952 9.176963 48.562198 -2.259821 6.314948 39.529112 0.000000 -0.000001 -0.000002 0.000004 -0.000000 -0.000000 -118.218444 -21.717857 4.142039 95.049343 -9.278634 -3.058515 -0.773719 40.356921 -24.579703 -1.087084 2.121673 1.426657 0.000000 -0.000000 0.000000 -123.284081 11.160249 -6.286888 100.389396 -8.605288 2.497011 -13.396850 14.453718 11.217273 -4.880729 -0.101120 0.249135 -0.000000 -0.000001 0.000000 
24.356880 122.752975 -76.044731 45.170828 -31.957393 30.218191 7.501150 0.473217 -0.094209 15.004124 0.188495 -0.411566 15.004126 0.188497 -0.411574 33.858221 1.234998 -7.801323 -7.207083 -0.969114 -7.821521 -0.000000 0.000001 0.000000 -0.000000 0.000001 0.000000 -0.000000 0.000001 0.000000 3.691365 -9.232015 16.842073 -90.167697 -22.946203 -56.860970 -182.521574 -81.876695 -173.718936 -43.588348 -23.494157 5.983752 -4.696481 -7.458129 -59.263516 -0.614405 -2.299100 -29.399887 -0.000003 -0.000005 -0.000004 -0.000001 0.000000 0.000003 7.304864 4.328131 0.218454 -1.836300 5.125486 -3.177596 0.000005 0.000019 0.000007 0.000002 -0.000001 -0.000000 -0.020147 0.263236 -39.547212 0.234185 0.600179 -36.184874 0.000007 0.000003 0.000013 -0.000001 -0.000003 0.000001 -9.025439 6.375626 -50.478284 -1.666257 -3.676352 -48.976800 -0.000005 -0.000008 -0.000007 -0.000001 0.000002 0.000000 3.118696 7.429560 -77.432912 -4.287576 -4.396772 -76.698687 -0.000008 -0.000005 0.000002 -0.000002 0.000001 -0.000002 10.092318 24.586275 -28.030178 -43.987832 16.458196 31.234424 120.974876 75.372128 -142.868187 -17.531963 17.386412 -17.839354 -9.361009 2.758734 44.597751 -0.741957 2.156180 37.450194 0.000004 -0.000000 -0.000002 0.000001 0.000000 -0.000001 -13.582421 1.742518 8.036417 -0.558459 -0.321281 0.302142 -0.000003 0.000005 -0.000021 0.000003 0.000001 0.000001 -13.701778 -0.105592 44.096992 0.132973 -0.726202 18.017477 0.000002 -0.000003 0.000004 0.000001 0.000000 -0.000005 -16.613834 -3.834957 43.531149 -2.569647 4.909656 52.634466 -0.000004 0.000002 -0.000001 -0.000001 -0.000000 0.000000 -10.865166 9.122456 48.672164 -2.250465 6.303754 39.444059 0.000004 -0.000002 -0.000004 0.000002 0.000000 0.000000 -117.449324 -21.100449 4.420409 95.028586 -9.221108 -3.050306 -0.876013 40.267097 -24.512540 -1.087074 2.121679 1.426665 0.000000 -0.000000 -0.000000 -122.908967 11.676383 -6.098927 100.535979 -8.633397 2.498215 -13.378839 14.580868 11.175989 -4.880329 -0.101160 0.248982 -0.000000 0.000000 -0.000000 
24.219673 122.993210 -76.120361 44.444379 -32.339071 30.334612 7.397011 0.566469 -0.030398 14.796603 0.415442 -0.308006 14.796609 0.415435 -0.308003 33.824145 1.319605 -7.555904 -7.251320 -0.675786 -7.833717 -0.000001 0.000000 -0.000000 -0.000001 0.000000 -0.000000 -0.000001 0.000000 -0.000000 3.619549 -8.689547 16.716492 -90.640333 -22.755639 -56.923780 -182.901360 -81.725529 -173.827385 -41.351324 -23.662405 7.467278 -4.816566 -7.397050 -59.867045 -0.634779 -2.334899 -29.903962 -0.000002 -0.000005 -0.000007 -0.000001 0.000001 -0.000003 7.281677 3.902088 -3.007642 -1.836316 5.125480 -3.177595 0.000005 0.000018 0.000006 0.000001 0.000003 0.000002 -0.180053 0.710172 -40.526832 0.247039 0.613980 -37.315267 0.000003 0.000008 0.000006 -0.000001 -0.000002 0.000001 -8.989876 6.454470 -51.193463 -1.685247 -3.692717 -49.272063 -0.000011 -0.000007 -0.000012 -0.000001 0.000001 -0.000002 3.163623 7.358116 -78.188953 -4.294744 -4.400544 -76.791591 -0.000004 0.000000 0.000004 -0.000002 -0.000002 0.000001 10.058956 24.590988 -27.902158 -43.790525 16.482800 31.236897 120.056858 75.793714 -141.918217 -18.167994 17.178680 -17.354908 -9.417524 2.808177 44.694859 -0.743373 2.158005 37.488040 0.000002 0.000000 -0.000000 0.000001 -0.000001 -0.000000 -13.499600 1.547609 7.730747 -0.558473 -0.321266 0.302146 -0.000002 0.000005 -0.000022 0.000002 0.000000 -0.000000 -13.710096 -0.006794 43.838931 0.133284 -0.727038 18.040872 -0.000002 -0.000006 -0.000001 0.000003 -0.000001 -0.000006 -16.673877 -3.773242 43.615669 -2.567979 4.908380 52.614870 -0.000001 0.000003 -0.000002 0.000003 0.000000 0.000001 -10.927913 9.138274 48.804331 -2.246623 6.299136 39.409082 0.000005 -0.000001 -0.000002 0.000001 0.000000 0.000000 -116.374771 -20.757387 4.555661 94.950148 -9.069998 -3.029260 -0.943143 40.316957 -24.680195 -1.087057 2.121690 1.426668 0.000000 -0.000001 -0.000000 -122.222574 11.975293 -5.949858 100.562870 -8.646516 2.498733 -13.429285 14.739668 11.083636 -4.880080 -0.101177 0.249018 -0.000000 -0.000000 -0.000000 
